<svg id="Layer_1" data-name="Layer 1" xmlns="http://www.w3.org/2000/svg" xmlns:xlink="http://www.w3.org/1999/xlink" viewBox="0 0 1920 1053"><defs><style>.cls-1,.cls-10,.cls-11,.cls-12,.cls-13,.cls-14,.cls-15,.cls-16,.cls-17,.cls-18,.cls-19,.cls-2,.cls-20,.cls-21,.cls-22,.cls-23,.cls-24,.cls-25,.cls-26,.cls-27,.cls-3,.cls-4,.cls-5,.cls-6,.cls-7,.cls-8,.cls-9{opacity:0.53;}.cls-2{fill:url(#linear-gradient);}.cls-3{fill:url(#linear-gradient-2);}.cls-4{fill:url(#linear-gradient-3);}.cls-5{fill:url(#linear-gradient-4);}.cls-6{fill:url(#linear-gradient-5);}.cls-7{fill:url(#linear-gradient-6);}.cls-8{fill:url(#linear-gradient-7);}.cls-9{fill:url(#linear-gradient-8);}.cls-10{fill:url(#linear-gradient-9);}.cls-11{fill:url(#linear-gradient-10);}.cls-12{fill:url(#linear-gradient-11);}.cls-13{fill:url(#linear-gradient-12);}.cls-14{fill:url(#linear-gradient-13);}.cls-15{fill:url(#linear-gradient-14);}.cls-16{fill:url(#linear-gradient-15);}.cls-17{fill:url(#linear-gradient-16);}.cls-18{fill:url(#linear-gradient-17);}.cls-19{fill:url(#linear-gradient-18);}.cls-20{fill:url(#linear-gradient-19);}.cls-21{fill:url(#linear-gradient-20);}.cls-22{fill:url(#linear-gradient-21);}.cls-23{fill:url(#linear-gradient-22);}.cls-24{fill:url(#linear-gradient-23);}.cls-25{fill:url(#linear-gradient-24);}.cls-26{fill:url(#linear-gradient-25);}.cls-27{fill:url(#linear-gradient-26);}.cls-28{fill:#9a00ff;}</style><linearGradient id="linear-gradient" x1="725" y1="691.84" x2="1939.61" y2="691.84" gradientUnits="userSpaceOnUse"><stop offset="0" stop-color="#9a00ff"/><stop offset="0.22" stop-color="#b21deb" stop-opacity="0.76"/><stop offset="0.6" stop-color="#db4fca" stop-opacity="0.36"/><stop offset="0.87" stop-color="#f56fb4" stop-opacity="0.1"/><stop offset="1" stop-color="#ff7bac" stop-opacity="0"/></linearGradient><linearGradient id="linear-gradient-2" x1="1503.16" y1="526.36" x2="1734.61" y2="526.36" xlink:href="#linear-gradient"/><linearGradient id="linear-gradient-3" x1="1555.34" y1="739" x2="1689.13" y2="739" xlink:href="#linear-gradient"/><linearGradient id="linear-gradient-4" x1="1174.58" y1="692.24" x2="1489.88" y2="692.24" xlink:href="#linear-gradient"/><linearGradient id="linear-gradient-5" x1="1188.83" y1="502.19" x2="1383.61" y2="502.19" xlink:href="#linear-gradient"/><linearGradient id="linear-gradient-6" x1="1365.6" y1="428.66" x2="1427.6" y2="428.66" xlink:href="#linear-gradient"/><linearGradient id="linear-gradient-7" x1="1458.12" y1="545.37" x2="1571.01" y2="545.37" xlink:href="#linear-gradient"/><linearGradient id="linear-gradient-8" x1="1055.42" y1="697.65" x2="1203.08" y2="697.65" xlink:href="#linear-gradient"/><linearGradient id="linear-gradient-9" x1="1365.6" y1="344.85" x2="1480.04" y2="344.85" xlink:href="#linear-gradient"/><linearGradient id="linear-gradient-10" x1="1203.08" y1="460.48" x2="1349.44" y2="460.48" xlink:href="#linear-gradient"/><linearGradient id="linear-gradient-11" x1="1489.88" y1="606.93" x2="1590.97" y2="606.93" xlink:href="#linear-gradient"/><linearGradient id="linear-gradient-12" x1="1379.15" y1="450.64" x2="1518.55" y2="450.64" xlink:href="#linear-gradient"/><linearGradient id="linear-gradient-13" x1="1585.71" y1="680.82" x2="1721.39" y2="680.82" xlink:href="#linear-gradient"/><linearGradient id="linear-gradient-14" x1="1489.88" y1="784.78" x2="1835.24" y2="784.78" xlink:href="#linear-gradient"/><linearGradient id="linear-gradient-15" x1="1590.67" y1="646.06" x2="1622.24" y2="646.06" xlink:href="#linear-gradient"/><linearGradient id="linear-gradient-16" x1="1133.12" y1="567.19" x2="1223.02" y2="567.19" xlink:href="#linear-gradient"/><linearGradient id="linear-gradient-17" x1="1812.47" y1="940.07" x2="1951" y2="940.07" xlink:href="#linear-gradient"/><linearGradient id="linear-gradient-18" x1="1673" y1="848.75" x2="1818.73" y2="848.75" xlink:href="#linear-gradient"/><linearGradient id="linear-gradient-19" x1="1244.13" y1="601.09" x2="1458.12" y2="601.09" xlink:href="#linear-gradient"/><linearGradient id="linear-gradient-20" x1="1193.47" y1="692.91" x2="1351.13" y2="692.91" xlink:href="#linear-gradient"/><linearGradient id="linear-gradient-21" x1="954.33" y1="933.99" x2="1276.96" y2="933.99" xlink:href="#linear-gradient"/><linearGradient id="linear-gradient-22" x1="1458.12" y1="958.3" x2="1722.77" y2="958.3" xlink:href="#linear-gradient"/><linearGradient id="linear-gradient-23" x1="1294.88" y1="825.5" x2="1550.6" y2="825.5" xlink:href="#linear-gradient"/><linearGradient id="linear-gradient-24" x1="813.82" y1="797.93" x2="1082.92" y2="797.93" xlink:href="#linear-gradient"/><linearGradient id="linear-gradient-25" x1="1678.76" y1="989.93" x2="1923.38" y2="989.93" xlink:href="#linear-gradient"/><linearGradient id="linear-gradient-26" x1="1104.44" y1="1008.07" x2="1482.38" y2="1008.07" xlink:href="#linear-gradient"/></defs><text class="cls-1"/><text class="cls-1"/><path class="cls-2" d="M1435,301.37s-71.28,69.89-93.1,95.51a615.11,615.11,0,0,1-45.54,47.44S1284,457.6,1266,464.24s-33.21,21.83-55,47.44-77.81,96.78-77.81,96.78-16.13,6.65-23.72,13.29-4.74,6.64-29.41,34.15-5.69-.94-37,38.91-44.6,50.28-98.68,75c0,0-38.9,52.19-69.26,76.86s-79.7,117.65-79.7,117.65-26.57,74-54.09,101.52-11.79,12.34-11.79,12.34H1939.61v-130l-47.44-95.87s-9.85,10.05-36.23-55.22-36.68-30.42-101.75-105.25l-45.14-86.22s-27.51-51.24-49.34-70.21-66.41-48.13-75.9-61.07-42.7-68.92-65.47-80.31-72.29-92.66-72.29-92.66Z"/><path class="cls-3" d="M1520.24,397.83l-17.08,62.62s23.72,5.69,26.57,16.13,30.37,37.11,41.28,44.65,35.37,45.43,35.37,45.43S1726,660.89,1734.61,654.6L1711,609.41l-32.81-51.74-39.24-36.44-21.12-15.77-32.07-27.33-27.3-40.1S1531.62,407.32,1520.24,397.83Z"/><path class="cls-4" d="M1555.34,771.66V706.33h81.56L1689.13,728v27.74s-48.77,6.28-71.35,8.72S1568.63,764.07,1555.34,771.66Z"/><path class="cls-5" d="M1458.12,569.56l31.76,30.36s-27.46,25-31.76,39.55-16.41,39.91-19.37,56.16c0,0-11.49,3.92-22.88,19.1s-20.69,54.08-23.16,56.93-58.51,13.16-58.51,13.16l-41.68,7.71s-49.33,26.57-62.62,21.83-34.7-5.13-41.07-17.27S1174.58,763,1174.58,763l42.26-24,45.32-8.14,47.44-10.44s29.31-14.61,30.79-28.18h-23.26s65.53-67.65,106.33-92.32Z"/><path class="cls-6" d="M1365.6,376.94l18,11.4s-5.65,20.81-18,59.27S1320,521.23,1320,521.23s-17.08,30.3-24.67,56.87c0,0-26.57,34.16-32.26,49.34h-24.47s-24.47-9.49-49.81,0c0,0,21.15-37,39.17-46.49s42.62-59.72,42.62-59.72,31.39-36.11,38-50.34S1296.36,479.39,1365.6,376.94Z"/><polyline class="cls-7" points="1405.43 468.99 1365.6 447.61 1383.61 388.34 1427.6 388.34 1405.43 459.5"/><path class="cls-8" d="M1458.12,569.56s50.73-64.52,61.17-78.75L1571,558.08s-56.46,15.28-81.13,41.84Z"/><path class="cls-9" d="M1194.8,646.42s-9.06,58.18,8.28,83.17c0,0-42.44,13.61-99.37,19.3h-48.29s47.34-20.11,61.1-30.93,38.79-25.15,58.06-43.6S1194.8,646.42,1194.8,646.42Z"/><path class="cls-10" d="M1427.6,388.34h-44l-18-11.4s58.08-75.25,69.36-75.57,45.08,51,45.08,51S1442.17,388.34,1427.6,388.34Z"/><path class="cls-11" d="M1349.44,388.34s-49.79,70.87-50,97.11l-18.83,24-15.92,23.19-27.47-11.4-34.11,7.29s28.72-18.73,28.72-21.58-3.44-14.84-3.44-14.84L1240.1,481l46.12-28S1346.59,392.13,1349.44,388.34Z"/><path class="cls-12" d="M1531.28,654.9l-41.4-55s55.62-47.3,75.73-40.25c0,0,29.59,22.23,24.84,34.56C1590.45,594.23,1530,634,1531.28,654.9Z"/><path class="cls-13" d="M1509,397.83s-22.66-30.16-29-35-52.44,25.52-52.44,25.52l-18.41,59.11s12.7,35.75,9.69,54.74l-39.73,30.44s34.1,14.3,56.76,0,67.25-72.18,67.25-72.18L1518.55,404Z"/><path class="cls-14" d="M1591,692.24s29.84-16,31.27-51.31c0,0,59.9,39.64,76.68,56.72s22.47,14.23,22.47,14.23-46.8,10.53-50.44,8.59-34-14.14-34-14.14l-51.19-8.68Z"/><path class="cls-15" d="M1776,715s-55.54,24.41-86.85,13v27.74L1591,765.84s-29,2-40.37,12.46-36,18.79-36,18.79l-24.68,49.26s126.19,14.5,183.12,5c0,0,35-46.88,61.61-54.27s36.12-.76,68.38-18.79l32.25-18L1800.66,733Z"/><path class="cls-16" d="M1600.89,673.93s-12.26-30.36-9.92-46.49l2.33-16.13,28.94,29.62-8.13,28-9,11.93Z"/><path class="cls-17" d="M1219.15,502.19l3.87,12.6-19.94,13.73h10s19.15,17.32-24.22,41c0,0,2.05,20.65-8.33,37.37s-20.81,25.25-20.81,25.25-13.4-8.54-24.73-4.74l-1.84-19,30.82-38.9,34.78-43.2Z"/><path class="cls-18" d="M1844.73,781.15l11.81,17.35,12.58,28.37,19.76,37.79s5.19,9.47,12.78,8.52l21.78,44L1951,973.82,1949.1,1099S1823.86,951.93,1822,919.67s9.49-47.25,0-83.87l-9.49-36.62Z"/><path class="cls-19" d="M1803,778.3s-22.76,17.05-53.6,15.64l-19.32,4.75L1710.89,811l-12.5,11.37-25.39,29s40.8,1.9,55,27.52,18,40.32,18,40.32,21.82-32.73,54.08-39.38,12.74-1.17,12.74-1.17l2.54-21.1.83-17.54-2.37-19.09Z"/><path class="cls-20" d="M1423.46,599.92l34.66-30.36s-17.09,3.74-9.27-43.2l-34.78,12.55-17.47-1.34-17.45-4.94s-45.83,46.42-73.34,52.11-19.59,5.58-19.59,5.58l-14.41,21-8.7,16.13s0,21.82-19,21.82c0,0,46.22-1,42.09,26.55,0,0,56.63-11.91,79.38-34.88l20.82-13.49Z"/><path class="cls-21" d="M1351.13,654.9l-64.91,20.91s7.25-23.7-42.09-26.55l-49.33-2.84s-6.22,73.36,8.28,83.17l14.49,9.81,80.69-16.48,32.65-16.59,9.48-14.09h-23.26Z"/><path class="cls-22" d="M1102.1,834.36,957.5,977.77s-34.24,78.23,122.4,50.39,185.79-31.21,196.36-73.64-102.33-116.28-115.62-120.16-31.39,14.39-31.39,14.39"/><path class="cls-23" d="M1489.88,846.35s15.24,3.4-31.76,187.8c0,0,40.3,6.06,45,25s137.19,15.45,202.38-25-74.66-118.86-87.76-149.4S1489.88,846.35,1489.88,846.35Z"/><path class="cls-24" d="M1550.6,726.26l-4.74,72-36,18.78-24.69,49.27L1475.29,961s-96.06-46.87-161.23,0,51.23-16.7,118.27-169.46c0,0,50-33.87,66.09-65.32s28.12-51.43,28.12-51.43Z"/><path class="cls-25" d="M988.46,746.87,948.1,767.72l-68.83,76.76L825.63,917s-20.45,14-7.52,21c10.06,5.45,40.32,6.66,116.11-6.23,0,0,51,1.06,81.48-118.91s67.14-108.46,67.14-108.46l.08-50.36Z"/><path class="cls-26" d="M1821,899.75s-75-33.39-91.08,117.56c0,0-15.18,61.76-48.39,61.76s241.84,4.18,241.84,4.18S1802,940.55,1811.52,920.15Z"/><path class="cls-27" d="M1460.46,969.15S1446.1,912.84,1321.14,954c0,0-34.35,45.06-95.78,58.77s-120.92,64.39-120.92,64.39h377.94l-21.92-30.13Z"/><circle class="cls-28" cx="-210.74" cy="-194.96" r="238.88"/></svg>
