<svg id="Layer_1" data-name="Layer 1" xmlns="http://www.w3.org/2000/svg" viewBox="0 0 410.82 109"><defs><style>.cls-1{fill:#fff;}.cls-2{fill:#9a00ff;}</style></defs><path class="cls-1" d="M0,39.4C0,15.6,17.8,0,40.8,0a58.19,58.19,0,0,1,17,2.6L53.4,22A56,56,0,0,0,41,20.2c-10.8,0-17.8,7.8-17.8,19.2v67H0Z"/><path class="cls-1" d="M70.2,43c0-28,18.4-43,41-43,22.8,0,41.2,16,41.2,39.2v22h-59V65c0,16.2,7.8,23.8,21.2,23.8,9.8,0,19-2,28.2-4.8l4.6,19.2a87,87,0,0,1-32.8,5.8c-26.4,0-44.4-15.2-44.4-44ZM129,44V39.2c0-10.8-7-19-17.8-19-10.4,0-17.8,7.6-17.8,20.4V44Z"/><path class="cls-1" d="M173,43c0-28,18.4-43,41-43,22.8,0,41.2,16,41.2,39.2v22h-59V65c0,16.2,7.8,23.8,21.2,23.8,9.8,0,19-2,28.2-4.8l4.6,19.2a87,87,0,0,1-32.8,5.8C191,109,173,93.8,173,65Zm58.8,1V39.2c0-10.8-7-19-17.8-19-10.4,0-17.8,7.6-17.8,20.4V44Z"/><path class="cls-1" d="M278.4,42.8C278.4,14.8,297,0,319.8,0c22.6,0,41,14.8,41,42.8v63.6H337.4V43.8c0-15.6-7-23.6-17.6-23.6-10.8,0-18.2,8-18.2,23.6v62.6H278.4Z"/><path class="cls-2" d="M380.79,93.41a15,15,0,0,1,30,0c0,8.3-6.82,15.33-14.91,15.33A15.36,15.36,0,0,1,380.79,93.41Z"/></svg>
